# xmcd
#
# Track frame offsets:
# 150
# 2582
# 10445
# 31859
# 44367
# 65082
# 81416
# 96042
# 97796
# 111564
# 128159
# 143549
# 157444
# 159862
# 175998
# 186592
# 194331
# 211845
#
# Disc length: 3076 seconds
#
#
# Revision: 0
# Processed by: cddbd v1.5.2PL0 Copyright (c) Steve Scherf et al.
# Submitted via: FreeRIP 2.951 
#
DISCID=f60c0212
DTITLE=Intifada - Intifada - Intifada
DYEAR=2010
DGENRE=Acid
TTITLE0=Intro
TTITLE1=30 30
TTITLE2=nuevo mundo
TTITLE3=Intifada
TTITLE4=El muro
TTITLE5=A puño y letra
TTITLE6=cacofonia
TTITLE7=Skit
TTITLE8=Mas sin embargo
TTITLE9=Lucro de sangre
TTITLE10=Ojo x ojo
TTITLE11=3 16
TTITLE12=skit
TTITLE13=to esa mie...
TTITLE14=ciudadano americano 1
TTITLE15=ciudadano americano 2
TTITLE16=patriotismo
TTITLE17=Mundo nuevo
EXTD=
EXTT0=
EXTT1=
EXTT2=
EXTT3=
EXTT4=
EXTT5=
EXTT6=
EXTT7=
EXTT8=
EXTT9=
EXTT10=
EXTT11=
EXTT12=
EXTT13=
EXTT14=
EXTT15=
EXTT16=
EXTT17=
PLAYORDER=
